<svg xmlns="http://www.w3.org/2000/svg" width="18" height="16" viewBox="0 0 18 16">
    <g fill="none" fill-rule="nonzero">
        <path d="M-11-12h39v39h-39z"/>
        <path fill="#04223F" d="M9 1.125c-1.09 0-2.112.146-3.067.44-.955.292-1.787.694-2.496 1.204a6.113 6.113 0 0 0-1.688 1.793 4.149 4.149 0 0 0-.624 2.188c0 .469.07.923.21 1.362.142.44.347.853.616 1.24.27.386.598.747.985 1.08a6.18 6.18 0 0 0 1.335.87l.616.317v.791l-.018.035c0 .305-.035.607-.105.906-.07.298-.164.588-.282.87a7.698 7.698 0 0 0 1.424-.853c.422-.322.68-.536.774-.641l.404-.493.615.088a4.717 4.717 0 0 0 .826.053H9c1.09 0 2.112-.146 3.067-.44.955-.292 1.787-.694 2.496-1.204a6.113 6.113 0 0 0 1.688-1.793 4.149 4.149 0 0 0 0-4.376 6.113 6.113 0 0 0-1.688-1.793c-.709-.51-1.54-.912-2.496-1.205A10.407 10.407 0 0 0 9 1.125zM9 0c1.242 0 2.411.176 3.507.527 1.096.352 2.05.835 2.865 1.45.815.616 1.456 1.33 1.925 2.145.469.815.703 1.69.703 2.628 0 .938-.234 1.813-.703 2.628-.469.814-1.11 1.53-1.925 2.144-.814.616-1.77 1.1-2.865 1.45A11.412 11.412 0 0 1 9 13.5h-.475c-.164 0-.319-.003-.465-.009a3.952 3.952 0 0 1-.519-.061c-.094.117-.278.29-.554.518A10.47 10.47 0 0 1 4.79 15.32a5.48 5.48 0 0 1-1.327.431H3.322c-.14 0-.26-.05-.36-.15-.1-.099-.15-.22-.15-.36a.64.64 0 0 1 .01-.105.312.312 0 0 1 .026-.088c.164-.293.354-.689.57-1.187.218-.498.326-.999.326-1.503 0-.011.003-.02.009-.026.006-.006.009-.015.009-.026a8.224 8.224 0 0 1-1.6-1.055A6.325 6.325 0 0 1 .984 9.94a5.996 5.996 0 0 1-.73-1.511A5.495 5.495 0 0 1 0 6.75c0-.938.234-1.813.703-2.628.469-.814 1.11-1.53 1.925-2.144.814-.616 1.77-1.1 2.865-1.45A11.412 11.412 0 0 1 9 0z"/>
    </g>
</svg>
