<svg xmlns="http://www.w3.org/2000/svg" width="18" height="18" viewBox="0 0 18 18">
    <g fill="none" fill-rule="nonzero">
        <path d="M-11-11h39v39h-39z"/>
        <path fill="#04223F" d="M16.875 7.295c.27.047.524.179.765.395.24.217.36.484.36.8v1.125c0 .305-.12.551-.36.739-.24.187-.495.316-.765.386l-1.459.352c-.059.176-.12.343-.185.5a4.81 4.81 0 0 1-.22.467l.774 1.3c.153.235.246.504.281.809a.92.92 0 0 1-.28.791l-.792.791a1.016 1.016 0 0 1-.808.308 1.656 1.656 0 0 1-.827-.255l-1.265-.809a9.236 9.236 0 0 1-.492.229c-.165.07-.34.134-.528.193l-.316 1.459a1.53 1.53 0 0 1-.396.765c-.216.24-.483.36-.8.36H8.438a.892.892 0 0 1-.739-.36 2.099 2.099 0 0 1-.386-.765l-.352-1.441a7.202 7.202 0 0 1-.563-.203 5.78 5.78 0 0 1-.544-.254l-1.301.826a1.57 1.57 0 0 1-.818.255.976.976 0 0 1-.8-.308l-.808-.791a.942.942 0 0 1-.264-.791c.035-.305.123-.574.264-.809l.826-1.37a9.681 9.681 0 0 1-.202-.431 3.634 3.634 0 0 1-.167-.466l-1.459-.352c-.27-.07-.524-.199-.765-.386A.892.892 0 0 1 0 9.615V8.49c0-.316.12-.583.36-.8a1.53 1.53 0 0 1 .765-.395l1.441-.316c.047-.165.106-.329.176-.493.07-.164.14-.322.211-.474L2.127 4.64a1.996 1.996 0 0 1-.264-.809.942.942 0 0 1 .264-.791l.809-.791a.976.976 0 0 1 .8-.308c.322.018.594.103.817.255l1.3.826a6.39 6.39 0 0 1 1.09-.457l.37-1.441c.058-.27.181-.524.369-.765A.91.91 0 0 1 8.437 0h1.126c.316 0 .58.12.79.36.211.24.346.49.405.747l.316 1.477a7.84 7.84 0 0 1 1.02.422l1.265-.809c.235-.152.51-.237.827-.255.316-.017.585.085.808.308l.791.791a.92.92 0 0 1 .281.791 1.85 1.85 0 0 1-.28.809l-.774 1.3c.082.164.16.331.237.501.076.17.138.349.185.537l1.441.316zm0 2.232l.018-1.002a.618.618 0 0 0-.088-.061.47.47 0 0 0-.159-.062l-2.091-.474-.194-.615a2.968 2.968 0 0 0-.14-.422 4.93 4.93 0 0 0-.211-.44l-.281-.562 1.107-1.846a.568.568 0 0 0 .079-.14.337.337 0 0 0 .026-.106l-.738-.72a.418.418 0 0 0-.228.07l-1.81 1.16-.581-.3c-.14-.07-.281-.137-.422-.201a2.285 2.285 0 0 0-.44-.15l-.615-.21-.457-2.128a.517.517 0 0 0-.052-.131l-.036-.062H8.526a.409.409 0 0 0-.07.105.625.625 0 0 0-.053.176l-.51 2.04-.597.193a4.783 4.783 0 0 0-.457.167 5.413 5.413 0 0 0-.457.22l-.58.298L3.92 3.13l-.088-.044a.805.805 0 0 0-.105-.044l-.739.738c0 .035.01.076.027.123a.99.99 0 0 0 .079.159l1.142 1.898-.28.545c-.071.152-.133.293-.185.422a3.347 3.347 0 0 0-.132.386l-.194.616-2.127.474a.644.644 0 0 0-.114.053.239.239 0 0 1-.079.035v1.037a.294.294 0 0 0 .105.062.957.957 0 0 0 .176.044l2.057.527.193.598c.035.117.08.237.132.36.053.123.114.25.185.378l.263.545-1.142 1.916a.568.568 0 0 0-.08.14.358.358 0 0 0-.026.124l.739.72a.292.292 0 0 0 .114-.026.709.709 0 0 0 .114-.061l1.846-1.178.58.299c.152.082.305.155.457.22.152.064.305.12.457.166l.598.194.527 2.074a.762.762 0 0 0 .044.15.305.305 0 0 0 .061.096h1.02a.618.618 0 0 0 .061-.088.49.49 0 0 0 .062-.14l.457-2.092.615-.211a6.169 6.169 0 0 0 .844-.352l.58-.299 1.846 1.178.088.044c.035.018.07.032.105.044l.738-.738a.358.358 0 0 0-.026-.123.99.99 0 0 0-.08-.159l-1.106-1.828.28-.562c.071-.13.133-.26.185-.396.053-.134.103-.272.15-.413l.193-.58 2.092-.527a.762.762 0 0 0 .15-.044.305.305 0 0 0 .096-.062zM9 5.625c.938 0 1.737.328 2.4.984A3.24 3.24 0 0 1 12.392 9a3.24 3.24 0 0 1-.994 2.39A3.284 3.284 0 0 1 9 12.376c-.926 0-1.72-.328-2.382-.984A3.24 3.24 0 0 1 5.625 9c0-.938.331-1.734.993-2.39A3.263 3.263 0 0 1 9 5.624zm0 5.625c.621 0 1.151-.22 1.59-.66.44-.439.66-.969.66-1.59 0-.621-.22-1.151-.66-1.59-.439-.44-.969-.66-1.59-.66-.621 0-1.151.22-1.59.66-.44.439-.66.969-.66 1.59 0 .621.22 1.151.66 1.59.439.44.969.66 1.59.66z"/>
    </g>
</svg>
